{
    "asset": {
        "generator": "https://3dviewer.net",
        "version": "2.0"
    },
    "scene": 0,
    "scenes": [
        {
            "nodes": [
                0,
                1
            ]
        }
    ],
    "nodes": [
        {
            "mesh": 0
        },
        {
            "mesh": 1
        }
    ],
    "materials": [
        {
            "name": "Material_0",
            "pbrMetallicRoughness": {
                "baseColorFactor": [
                    1,
                    1,
                    1,
                    1
                ],
                "baseColorTexture": {
                    "index": 0
                },
                "metallicFactor": 0,
                "roughnessFactor": 1
            },
            "emissiveFactor": [
                0,
                0,
                0
            ],
            "doubleSided": true,
            "alphaMode": "OPAQUE",
            "normalTexture": {
                "index": 1
            }
        },
        {
            "name": "Material_0.001",
            "pbrMetallicRoughness": {
                "baseColorFactor": [
                    1,
                    1,
                    1,
                    1
                ],
                "baseColorTexture": {
                    "index": 0
                },
                "metallicFactor": 0,
                "roughnessFactor": 1
            },
            "emissiveFactor": [
                0,
                0,
                0
            ],
            "doubleSided": true,
            "alphaMode": "OPAQUE",
            "normalTexture": {
                "index": 1
            }
        }
    ],
    "meshes": [
        {
            "name": "Mesh_0",
            "primitives": [
                {
                    "attributes": {
                        "POSITION": 1,
                        "NORMAL": 2,
                        "TEXCOORD_0": 3
                    },
                    "mode": 4,
                    "material": 0,
                    "indices": 0
                }
            ]
        },
        {
            "name": "Mesh_0.001",
            "primitives": [
                {
                    "attributes": {
                        "POSITION": 5,
                        "NORMAL": 6,
                        "TEXCOORD_0": 7
                    },
                    "mode": 4,
                    "material": 1,
                    "indices": 4
                }
            ]
        }
    ],
    "buffers": [
        {
            "uri": "model.bin",
            "byteLength": 1747440
        }
    ],
    "bufferViews": [
        {
            "buffer": 0,
            "byteOffset": 0,
            "byteLength": 338904
        },
        {
            "buffer": 0,
            "byteOffset": 338904,
            "byteLength": 200556
        },
        {
            "buffer": 0,
            "byteOffset": 539460,
            "byteLength": 200556
        },
        {
            "buffer": 0,
            "byteOffset": 740016,
            "byteLength": 133704
        },
        {
            "buffer": 0,
            "byteOffset": 873720,
            "byteLength": 338904
        },
        {
            "buffer": 0,
            "byteOffset": 1212624,
            "byteLength": 200556
        },
        {
            "buffer": 0,
            "byteOffset": 1413180,
            "byteLength": 200556
        },
        {
            "buffer": 0,
            "byteOffset": 1613736,
            "byteLength": 133704
        }
    ],
    "accessors": [
        {
            "bufferView": 0,
            "byteOffset": 0,
            "componentType": 5125,
            "count": 84726,
            "type": "SCALAR"
        },
        {
            "bufferView": 1,
            "byteOffset": 0,
            "componentType": 5126,
            "count": 16713,
            "min": [
                -0.26708877086639404,
                -0.2627883553504944,
                -0.1980256289243698
            ],
            "max": [
                0.19172580540180206,
                0.12602239847183228,
                0.15193940699100494
            ],
            "type": "VEC3"
        },
        {
            "bufferView": 2,
            "byteOffset": 0,
            "componentType": 5126,
            "count": 16713,
            "type": "VEC3"
        },
        {
            "bufferView": 3,
            "byteOffset": 0,
            "componentType": 5126,
            "count": 16713,
            "type": "VEC2"
        },
        {
            "bufferView": 4,
            "byteOffset": 0,
            "componentType": 5125,
            "count": 84726,
            "type": "SCALAR"
        },
        {
            "bufferView": 5,
            "byteOffset": 0,
            "componentType": 5126,
            "count": 16713,
            "min": [
                -0.2461142424030436,
                -0.2627883553504944,
                -0.2619572785670624
            ],
            "max": [
                0.21613888192191033,
                0.12602239847183228,
                0.1022540471977054
            ],
            "type": "VEC3"
        },
        {
            "bufferView": 6,
            "byteOffset": 0,
            "componentType": 5126,
            "count": 16713,
            "type": "VEC3"
        },
        {
            "bufferView": 7,
            "byteOffset": 0,
            "componentType": 5126,
            "count": 16713,
            "type": "VEC2"
        }
    ],
    "images": [
        {
            "uri": "Binary_2.jpeg"
        },
        {
            "uri": "Binary_0.jpeg"
        }
    ],
    "textures": [
        {
            "source": 0
        },
        {
            "source": 1
        }
    ]
}