{"accessors" : [{"bufferView" : 0, "byteOffset" : 0, "componentType" : 5123, "count" : 3444, "type" : "SCALAR", "max" : [2872], "min" : [0]}, {"bufferView" : 1, "byteOffset" : 0, "componentType" : 5126, "count" : 2873, "type" : "VEC3", "max" : [5.547500133514404, 2.937721014022827, 13.810306549072266], "min" : [4.630786895751953, 2.111341953277588, -10.05959701538086], "name" : "POSITION"}, {"bufferView" : 1, "byteOffset" : 12, "componentType" : 5126, "count" : 2873, "type" : "VEC2", "max" : [0.9927319884300232, -0.3796750009059906], "min" : [0.008388999849557877, -0.5160980224609375], "name" : "TEXCOORD_0"}, {"bufferView" : 1, "byteOffset" : 20, "componentType" : 5126, "count" : 2873, "type" : "VEC3", "max" : [0.9999966621398926, 0.9237322211265564, 0.9999691843986511], "min" : [-0.9998024702072144, -0.9239459037780762, -0.9999691843986511], "name" : "NORMAL"}, {"bufferView" : 0, "byteOffset" : 6888, "componentType" : 5123, "count" : 3444, "type" : "SCALAR", "max" : [2871], "min" : [0]}, {"bufferView" : 2, "byteOffset" : 0, "componentType" : 5126, "count" : 2872, "type" : "VEC3", "max" : [7.413033962249756, 2.937408924102783, 13.81515884399414], "min" : [5.72205114364624, 2.111743927001953, -10.052021026611328], "name" : "POSITION"}, {"bufferView" : 2, "byteOffset" : 12, "componentType" : 5126, "count" : 2872, "type" : "VEC2", "max" : [0.9927319884300232, -0.3796750009059906], "min" : [0.008388999849557877, -0.5160980224609375], "name" : "TEXCOORD_0"}, {"bufferView" : 2, "byteOffset" : 20, "componentType" : 5126, "count" : 2872, "type" : "VEC3", "max" : [0.998689591884613, 0.9240820407867432, 0.9993391036987305], "min" : [-0.9994032979011536, -0.9243043065071106, -0.9993391036987305], "name" : "NORMAL"}, {"bufferView" : 0, "byteOffset" : 13776, "componentType" : 5123, "count" : 1392, "type" : "SCALAR", "max" : [1159], "min" : [0]}, {"bufferView" : 3, "byteOffset" : 0, "componentType" : 5126, "count" : 1160, "type" : "VEC3", "max" : [4.217483997344971, 3.936060905456543, 7.035676956176758], "min" : [0.3354189991950989, 1.7579549551010132, 2.466701030731201], "name" : "POSITION"}, {"bufferView" : 3, "byteOffset" : 12, "componentType" : 5126, "count" : 1160, "type" : "VEC2", "max" : [0.9946690201759338, -0.545527994632721], "min" : [0.006118000019341707, -0.9828320145606995], "name" : "TEXCOORD_0"}, {"bufferView" : 3, "byteOffset" : 20, "componentType" : 5126, "count" : 1160, "type" : "VEC3", "max" : [0.9940852522850037, 0.9987449645996094, 0.9975005388259888], "min" : [-0.9413521885871887, -0.9987447261810303, -0.9932704567909241], "name" : "NORMAL"}, {"bufferView" : 0, "byteOffset" : 16560, "componentType" : 5123, "count" : 1392, "type" : "SCALAR", "max" : [1159], "min" : [0]}, {"bufferView" : 4, "byteOffset" : 0, "componentType" : 5126, "count" : 1160, "type" : "VEC3", "max" : [4.32980489730835, 3.722266912460327, 2.2744009494781494], "min" : [0.2123810052871704, 1.766342043876648, -1.8749569654464722], "name" : "POSITION"}, {"bufferView" : 4, "byteOffset" : 12, "componentType" : 5126, "count" : 1160, "type" : "VEC2", "max" : [0.9946690201759338, -0.545527994632721], "min" : [0.006118000019341707, -0.9828320145606995], "name" : "TEXCOORD_0"}, {"bufferView" : 4, "byteOffset" : 20, "componentType" : 5126, "count" : 1160, "type" : "VEC3", "max" : [0.9985044598579407, 1.0000044107437134, 0.961398720741272], "min" : [-0.9603729248046875, -1.0000044107437134, -0.9974125623703003], "name" : "NORMAL"}, {"bufferView" : 0, "byteOffset" : 19344, "componentType" : 5123, "count" : 1392, "type" : "SCALAR", "max" : [1159], "min" : [0]}, {"bufferView" : 5, "byteOffset" : 0, "componentType" : 5126, "count" : 1160, "type" : "VEC3", "max" : [4.2077741622924805, 3.9114251136779785, -2.2517600059509277], "min" : [0.3257400095462799, 1.7998039722442627, -6.794026851654053], "name" : "POSITION"}, {"bufferView" : 5, "byteOffset" : 12, "componentType" : 5126, "count" : 1160, "type" : "VEC2", "max" : [0.9946690201759338, -0.545527994632721], "min" : [0.006118000019341707, -0.9828320145606995], "name" : "TEXCOORD_0"}, {"bufferView" : 5, "byteOffset" : 20, "componentType" : 5126, "count" : 1160, "type" : "VEC3", "max" : [0.9940852522850037, 0.9993903040885925, 0.9981463551521301], "min" : [-0.9413514733314514, -0.9993902444839478, -0.9939122796058655], "name" : "NORMAL"}, {"bufferView" : 0, "byteOffset" : 22128, "componentType" : 5123, "count" : 1392, "type" : "SCALAR", "max" : [1159], "min" : [0]}, {"bufferView" : 6, "byteOffset" : 0, "componentType" : 5126, "count" : 1160, "type" : "VEC3", "max" : [0.07019200176000595, 3.7222659587860107, 2.355623960494995], "min" : [-3.9201478958129883, 1.766342043876648, -2.0928430557250977], "name" : "POSITION"}, {"bufferView" : 6, "byteOffset" : 12, "componentType" : 5126, "count" : 1160, "type" : "VEC2", "max" : [0.9946690201759338, -0.545527994632721], "min" : [0.006118000019341707, -0.9828320145606995], "name" : "TEXCOORD_0"}, {"bufferView" : 6, "byteOffset" : 20, "componentType" : 5126, "count" : 1160, "type" : "VEC3", "max" : [0.9995095729827881, 1.0000044107437134, 0.9985278844833374], "min" : [-0.9287077188491821, -1.0000044107437134, -1.0000042915344238], "name" : "NORMAL"}, {"bufferView" : 0, "byteOffset" : 24912, "componentType" : 5123, "count" : 1392, "type" : "SCALAR", "max" : [1159], "min" : [0]}, {"bufferView" : 7, "byteOffset" : 0, "componentType" : 5126, "count" : 1160, "type" : "VEC3", "max" : [0.1343500018119812, 3.9657158851623535, -2.484035015106201], "min" : [-4.001643180847168, 1.8066630363464355, -6.725778102874756], "name" : "POSITION"}, {"bufferView" : 7, "byteOffset" : 12, "componentType" : 5126, "count" : 1160, "type" : "VEC2", "max" : [0.9946690201759338, -0.545527994632721], "min" : [0.006118000019341707, -0.9828320145606995], "name" : "TEXCOORD_0"}, {"bufferView" : 7, "byteOffset" : 20, "componentType" : 5126, "count" : 1160, "type" : "VEC3", "max" : [0.9565762281417847, 0.9987775683403015, 0.9970578551292419], "min" : [-0.9991450905799866, -0.9987775087356567, -0.9564744234085083], "name" : "NORMAL"}, {"bufferView" : 0, "byteOffset" : 27696, "componentType" : 5123, "count" : 1392, "type" : "SCALAR", "max" : [1159], "min" : [0]}, {"bufferView" : 8, "byteOffset" : 0, "componentType" : 5126, "count" : 1160, "type" : "VEC3", "max" : [-0.12287800014019012, 3.891990900039673, 6.8304619789123535], "min" : [-3.6687979698181152, 1.8168179988861084, 2.81166410446167], "name" : "POSITION"}, {"bufferView" : 8, "byteOffset" : 12, "componentType" : 5126, "count" : 1160, "type" : "VEC2", "max" : [0.9946690201759338, -0.545527994632721], "min" : [0.006118000019341707, -0.9828320145606995], "name" : "TEXCOORD_0"}, {"bufferView" : 8, "byteOffset" : 20, "componentType" : 5126, "count" : 1160, "type" : "VEC3", "max" : [0.9998847246170044, 0.9995445013046265, 0.9994843006134033], "min" : [-0.9999781250953674, -0.9995443820953369, -0.9981237649917603], "name" : "NORMAL"}, {"bufferView" : 0, "byteOffset" : 30480, "componentType" : 5123, "count" : 1200, "type" : "SCALAR", "max" : [915], "min" : [0]}, {"bufferView" : 9, "byteOffset" : 0, "componentType" : 5126, "count" : 916, "type" : "VEC3", "max" : [7.848409175872803, 2.1587870121002197, 7.843214988708496], "min" : [-7.77678918838501, -0.010456999763846397, -7.781982898712158], "name" : "POSITION"}, {"bufferView" : 9, "byteOffset" : 12, "componentType" : 5126, "count" : 916, "type" : "VEC2", "max" : [0.9931399822235107, -0.0019920000340789557], "min" : [0.0018530000234022737, -0.9924389719963074], "name" : "TEXCOORD_0"}, {"bufferView" : 9, "byteOffset" : 20, "componentType" : 5126, "count" : 916, "type" : "VEC3", "max" : [1.0000038146972656, 1.0000044107437134, 1.0000038146972656], "min" : [-1.0000038146972656, -1.0000044107437134, -1.0000038146972656], "name" : "NORMAL"}], "asset" : {"generator" : "Aspose.3D 22.1", "version" : "2.0"}, "buffers" : [{"uri" : "data:application/octet-stream;base64,", "byteLength" : 559000}], "bufferViews" : [{"buffer" : 0, "byteOffset" : 0, "byteLength" : 32880, "target" : 34963}, {"buffer" : 0, "byteOffset" : 32884, "byteLength" : 110208, "byteStride" : 32, "target" : 34962}, {"buffer" : 0, "byteOffset" : 143096, "byteLength" : 110208, "byteStride" : 32, "target" : 34962}, {"buffer" : 0, "byteOffset" : 253308, "byteLength" : 44544, "byteStride" : 32, "target" : 34962}, {"buffer" : 0, "byteOffset" : 297856, "byteLength" : 44544, "byteStride" : 32, "target" : 34962}, {"buffer" : 0, "byteOffset" : 342404, "byteLength" : 44544, "byteStride" : 32, "target" : 34962}, {"buffer" : 0, "byteOffset" : 386952, "byteLength" : 44544, "byteStride" : 32, "target" : 34962}, {"buffer" : 0, "byteOffset" : 431500, "byteLength" : 44544, "byteStride" : 32, "target" : 34962}, {"buffer" : 0, "byteOffset" : 476048, "byteLength" : 44544, "byteStride" : 32, "target" : 34962}, {"buffer" : 0, "byteOffset" : 520596, "byteLength" : 38400, "byteStride" : 32, "target" : 34962}], "images" : [{"uri" : "data:image/jpeg;base64,"}, {"uri" : "-mm 0 0.58678 sushi.jpg -bm 0.05"}, {"uri" : "-mm 0 0.58678 sushi.jpg"}, {"uri" : "data:image/jpeg;base64,"}], "materials" : [{"name" : "", "pbrMetallicRoughness" : {"baseColorFactor" : [0, 0, 0, 1], "baseColorTexture" : {"index" : 0, "texCoord" : 0}, "metallicFactor" : 0, "roughnessFactor" : 0}, "emissiveFactor" : [0, 0, 0], "alphaMode" : "OPAQUE", "doubleSided" : false}, {"name" : "", "pbrMetallicRoughness" : {"baseColorFactor" : [0, 0, 0, 1], "baseColorTexture" : {"index" : 0, "texCoord" : 0}, "metallicFactor" : 0, "roughnessFactor" : 0}, "emissiveFactor" : [0, 0, 0], "alphaMode" : "OPAQUE", "doubleSided" : false}, {"name" : "", "pbrMetallicRoughness" : {"baseColorFactor" : [0, 0, 0, 1], "baseColorTexture" : {"index" : 2, "texCoord" : 0}, "metallicFactor" : 0, "roughnessFactor" : 0}, "normalTexture" : {"index" : 1, "texCoord" : 0, "scale" : 1}, "emissiveFactor" : [0, 0, 0], "alphaMode" : "OPAQUE", "doubleSided" : false}, {"name" : "", "pbrMetallicRoughness" : {"baseColorFactor" : [0, 0, 0, 1], "baseColorTexture" : {"index" : 2, "texCoord" : 0}, "metallicFactor" : 0, "roughnessFactor" : 0}, "normalTexture" : {"index" : 1, "texCoord" : 0, "scale" : 1}, "emissiveFactor" : [0, 0, 0], "alphaMode" : "OPAQUE", "doubleSided" : false}, {"name" : "", "pbrMetallicRoughness" : {"baseColorFactor" : [0, 0, 0, 1], "baseColorTexture" : {"index" : 2, "texCoord" : 0}, "metallicFactor" : 0, "roughnessFactor" : 0}, "normalTexture" : {"index" : 1, "texCoord" : 0, "scale" : 1}, "emissiveFactor" : [0, 0, 0], "alphaMode" : "OPAQUE", "doubleSided" : false}, {"name" : "", "pbrMetallicRoughness" : {"baseColorFactor" : [0, 0, 0, 1], "baseColorTexture" : {"index" : 2, "texCoord" : 0}, "metallicFactor" : 0, "roughnessFactor" : 0}, "normalTexture" : {"index" : 1, "texCoord" : 0, "scale" : 1}, "emissiveFactor" : [0, 0, 0], "alphaMode" : "OPAQUE", "doubleSided" : false}, {"name" : "", "pbrMetallicRoughness" : {"baseColorFactor" : [0, 0, 0, 1], "baseColorTexture" : {"index" : 2, "texCoord" : 0}, "metallicFactor" : 0, "roughnessFactor" : 0}, "normalTexture" : {"index" : 1, "texCoord" : 0, "scale" : 1}, "emissiveFactor" : [0, 0, 0], "alphaMode" : "OPAQUE", "doubleSided" : false}, {"name" : "", "pbrMetallicRoughness" : {"baseColorFactor" : [0, 0, 0, 1], "baseColorTexture" : {"index" : 2, "texCoord" : 0}, "metallicFactor" : 0, "roughnessFactor" : 0}, "normalTexture" : {"index" : 1, "texCoord" : 0, "scale" : 1}, "emissiveFactor" : [0, 0, 0], "alphaMode" : "OPAQUE", "doubleSided" : false}, {"name" : "", "pbrMetallicRoughness" : {"baseColorFactor" : [0, 0, 0, 1], "baseColorTexture" : {"index" : 3, "texCoord" : 0}, "metallicFactor" : 0, "roughnessFactor" : 0}, "emissiveFactor" : [0, 0, 0], "alphaMode" : "OPAQUE", "doubleSided" : false}], "meshes" : [{"primitives" : [{"attributes" : {"POSITION" : 1, "TEXCOORD_0" : 2, "NORMAL" : 3}, "indices" : 0, "material" : 0, "mode" : 4}], "name" : ""}, {"primitives" : [{"attributes" : {"POSITION" : 5, "TEXCOORD_0" : 6, "NORMAL" : 7}, "indices" : 4, "material" : 1, "mode" : 4}], "name" : ""}, {"primitives" : [{"attributes" : {"POSITION" : 9, "TEXCOORD_0" : 10, "NORMAL" : 11}, "indices" : 8, "material" : 2, "mode" : 4}], "name" : ""}, {"primitives" : [{"attributes" : {"POSITION" : 13, "TEXCOORD_0" : 14, "NORMAL" : 15}, "indices" : 12, "material" : 3, "mode" : 4}], "name" : ""}, {"primitives" : [{"attributes" : {"POSITION" : 17, "TEXCOORD_0" : 18, "NORMAL" : 19}, "indices" : 16, "material" : 4, "mode" : 4}], "name" : ""}, {"primitives" : [{"attributes" : {"POSITION" : 21, "TEXCOORD_0" : 22, "NORMAL" : 23}, "indices" : 20, "material" : 5, "mode" : 4}], "name" : ""}, {"primitives" : [{"attributes" : {"POSITION" : 25, "TEXCOORD_0" : 26, "NORMAL" : 27}, "indices" : 24, "material" : 6, "mode" : 4}], "name" : ""}, {"primitives" : [{"attributes" : {"POSITION" : 29, "TEXCOORD_0" : 30, "NORMAL" : 31}, "indices" : 28, "material" : 7, "mode" : 4}], "name" : ""}, {"primitives" : [{"attributes" : {"POSITION" : 33, "TEXCOORD_0" : 34, "NORMAL" : 35}, "indices" : 32, "material" : 8, "mode" : 4}], "name" : ""}], "nodes" : [{"mesh" : 0, "name" : "sushi_stick1"}, {"mesh" : 1, "name" : "sushi_stick2"}, {"mesh" : 2, "name" : "Sushi2"}, {"mesh" : 3, "name" : "Sushi1"}, {"mesh" : 4, "name" : "Sushi3"}, {"mesh" : 5, "name" : "Sushi5"}, {"mesh" : 6, "name" : "Sushi4"}, {"mesh" : 7, "name" : "Sushi6"}, {"mesh" : 8, "name" : "sushi_dish"}], "samplers" : [{"magFilter" : 9729, "minFilter" : 9729, "wrapS" : 10497, "wrapT" : 10497}, {"magFilter" : 9729, "minFilter" : 9729, "wrapS" : 10497, "wrapT" : 10497}, {"magFilter" : 9729, "minFilter" : 9729, "wrapS" : 10497, "wrapT" : 10497}, {"magFilter" : 9729, "minFilter" : 9729, "wrapS" : 10497, "wrapT" : 10497}], "scene" : 0, "scenes" : [{"nodes" : [0, 1, 2, 3, 4, 5, 6, 7, 8]}], "textures" : [{"sampler" : 0, "source" : 0}, {"sampler" : 1, "source" : 1}, {"sampler" : 2, "source" : 2}, {"sampler" : 3, "source" : 3}]}