{
  "accessors": [
    {
      "bufferView": 2,
      "componentType": 5126,
      "count": 1601,
      "max": [
        81.409698486328125,
        89.021453857421875,
        47.545425415039062
      ],
      "min": [
        -81.426605224609375,
        0.30856063961982727,
        -47.542106628417969
      ],
      "type": "VEC3"
    },
    {
      "bufferView": 2,
      "byteOffset": 19212,
      "componentType": 5126,
      "count": 1601,
      "max": [
        0.99791526794433594,
        1,
        0.99921709299087524
      ],
      "min": [
        -0.99791526794433594,
        -0.99999994039535522,
        -0.99921709299087524
      ],
      "type": "VEC3"
    },
    {
      "bufferView": 3,
      "componentType": 5126,
      "count": 1601,
      "max": [
        0.99958938360214233,
        0.99988406896591187,
        1,
        1
      ],
      "min": [
        -0.99957633018493652,
        -0.99999678134918213,
        -0.99989712238311768,
        -1
      ],
      "type": "VEC4"
    },
    {
      "bufferView": 1,
      "componentType": 5126,
      "count": 1601,
      "max": [
        0.9970703125,
        0.96740877628326416
      ],
      "min": [
        0.0029296875,
        0.0029296875
      ],
      "type": "VEC2"
    },
    {
      "bufferView": 0,
      "componentType": 5125,
      "count": 6762,
      "max": [
        1600
      ],
      "min": [
        0
      ],
      "type": "SCALAR"
    },
    {
      "bufferView": 2,
      "byteOffset": 38424,
      "componentType": 5126,
      "count": 1586,
      "max": [
        21.3753662109375,
        94.621055603027344,
        22.047767639160156
      ],
      "min": [
        -21.3753662109375,
        -0.015126228332519531,
        -22.049121856689453
      ],
      "type": "VEC3"
    },
    {
      "bufferView": 2,
      "byteOffset": 57456,
      "componentType": 5126,
      "count": 1586,
      "max": [
        0.99999982118606567,
        0.99999833106994629,
        0.9999997615814209
      ],
      "min": [
        -0.99999982118606567,
        -0.99999517202377319,
        -0.9999997615814209
      ],
      "type": "VEC3"
    },
    {
      "bufferView": 3,
      "byteOffset": 25616,
      "componentType": 5126,
      "count": 1586,
      "max": [
        0.99999940395355225,
        0.99999994039535522,
        0.99999696016311646,
        1
      ],
      "min": [
        -0.99999940395355225,
        -0.99999904632568359,
        -0.99999725818634033,
        1
      ],
      "type": "VEC4"
    },
    {
      "bufferView": 1,
      "byteOffset": 12808,
      "componentType": 5126,
      "count": 1586,
      "max": [
        0.976601243019104,
        0.9970703125
      ],
      "min": [
        0.0029296875,
        0.0029296875
      ],
      "type": "VEC2"
    },
    {
      "bufferView": 0,
      "byteOffset": 27048,
      "componentType": 5125,
      "count": 5652,
      "max": [
        1585
      ],
      "min": [
        0
      ],
      "type": "SCALAR"
    },
    {
      "bufferView": 2,
      "byteOffset": 76488,
      "componentType": 5126,
      "count": 1586,
      "max": [
        21.3753662109375,
        94.621055603027344,
        22.047767639160156
      ],
      "min": [
        -21.3753662109375,
        -0.015126228332519531,
        -22.049121856689453
      ],
      "type": "VEC3"
    },
    {
      "bufferView": 2,
      "byteOffset": 95520,
      "componentType": 5126,
      "count": 1586,
      "max": [
        0.99999982118606567,
        0.99999833106994629,
        0.9999997615814209
      ],
      "min": [
        -0.99999982118606567,
        -0.99999517202377319,
        -0.9999997615814209
      ],
      "type": "VEC3"
    },
    {
      "bufferView": 3,
      "byteOffset": 50992,
      "componentType": 5126,
      "count": 1586,
      "max": [
        0.99999940395355225,
        0.99999994039535522,
        0.99999696016311646,
        1
      ],
      "min": [
        -0.99999940395355225,
        -0.99999904632568359,
        -0.99999725818634033,
        1
      ],
      "type": "VEC4"
    },
    {
      "bufferView": 1,
      "byteOffset": 25496,
      "componentType": 5126,
      "count": 1586,
      "max": [
        0.976601243019104,
        0.9970703125
      ],
      "min": [
        0.0029296875,
        0.0029296875
      ],
      "type": "VEC2"
    },
    {
      "bufferView": 0,
      "byteOffset": 49656,
      "componentType": 5125,
      "count": 5652,
      "max": [
        1585
      ],
      "min": [
        0
      ],
      "type": "SCALAR"
    },
    {
      "bufferView": 2,
      "byteOffset": 114552,
      "componentType": 5126,
      "count": 1586,
      "max": [
        21.3753662109375,
        94.621055603027344,
        22.047767639160156
      ],
      "min": [
        -21.3753662109375,
        -0.015126228332519531,
        -22.049121856689453
      ],
      "type": "VEC3"
    },
    {
      "bufferView": 2,
      "byteOffset": 133584,
      "componentType": 5126,
      "count": 1586,
      "max": [
        0.99999982118606567,
        0.99999833106994629,
        0.9999997615814209
      ],
      "min": [
        -0.99999982118606567,
        -0.99999517202377319,
        -0.9999997615814209
      ],
      "type": "VEC3"
    },
    {
      "bufferView": 3,
      "byteOffset": 76368,
      "componentType": 5126,
      "count": 1586,
      "max": [
        0.99999940395355225,
        0.99999994039535522,
        0.99999696016311646,
        1
      ],
      "min": [
        -0.99999940395355225,
        -0.99999904632568359,
        -0.99999725818634033,
        1
      ],
      "type": "VEC4"
    },
    {
      "bufferView": 1,
      "byteOffset": 38184,
      "componentType": 5126,
      "count": 1586,
      "max": [
        0.976601243019104,
        0.9970703125
      ],
      "min": [
        0.0029296875,
        0.0029296875
      ],
      "type": "VEC2"
    },
    {
      "bufferView": 0,
      "byteOffset": 72264,
      "componentType": 5125,
      "count": 5652,
      "max": [
        1585
      ],
      "min": [
        0
      ],
      "type": "SCALAR"
    },
    {
      "bufferView": 2,
      "byteOffset": 152616,
      "componentType": 5126,
      "count": 1586,
      "max": [
        21.3753662109375,
        94.621055603027344,
        22.047767639160156
      ],
      "min": [
        -21.3753662109375,
        -0.015126228332519531,
        -22.049121856689453
      ],
      "type": "VEC3"
    },
    {
      "bufferView": 2,
      "byteOffset": 171648,
      "componentType": 5126,
      "count": 1586,
      "max": [
        0.99999982118606567,
        0.99999833106994629,
        0.9999997615814209
      ],
      "min": [
        -0.99999982118606567,
        -0.99999517202377319,
        -0.9999997615814209
      ],
      "type": "VEC3"
    },
    {
      "bufferView": 3,
      "byteOffset": 101744,
      "componentType": 5126,
      "count": 1586,
      "max": [
        0.99999940395355225,
        0.99999994039535522,
        0.99999696016311646,
        1
      ],
      "min": [
        -0.99999940395355225,
        -0.99999904632568359,
        -0.99999725818634033,
        1
      ],
      "type": "VEC4"
    },
    {
      "bufferView": 1,
      "byteOffset": 50872,
      "componentType": 5126,
      "count": 1586,
      "max": [
        0.976601243019104,
        0.9970703125
      ],
      "min": [
        0.0029296875,
        0.0029296875
      ],
      "type": "VEC2"
    },
    {
      "bufferView": 0,
      "byteOffset": 94872,
      "componentType": 5125,
      "count": 5652,
      "max": [
        1585
      ],
      "min": [
        0
      ],
      "type": "SCALAR"
    }
  ],
  "asset": {
    "extras": {
      "author": "AndreiVNK (https://sketchfab.com/AndreiVNK)",
      "license": "CC-BY-4.0 (http://creativecommons.org/licenses/by/4.0/)",
      "source": "https://sketchfab.com/3d-models/old-table-and-chair-set-ca80af77e34348348501e8ea00b4800e",
      "title": "Old table and chair set"
    },
    "generator": "Sketchfab-10.3.0",
    "version": "2.0"
  },
  "bufferViews": [
    {
      "buffer": 0,
      "byteLength": 117480,
      "byteOffset": 0,
      "name": "floatBufferViews",
      "target": 34963
    },
    {
      "buffer": 0,
      "byteLength": 63560,
      "byteOffset": 117480,
      "byteStride": 8,
      "name": "floatBufferViews",
      "target": 34962
    },
    {
      "buffer": 0,
      "byteLength": 190680,
      "byteOffset": 181040,
      "byteStride": 12,
      "name": "floatBufferViews",
      "target": 34962
    },
    {
      "buffer": 0,
      "byteLength": 127120,
      "byteOffset": 371720,
      "byteStride": 16,
      "name": "floatBufferViews",
      "target": 34962
    }
  ],
  "buffers": [
    {
      "byteLength": 498840,
      "uri": "scene.bin"
    }
  ],
  "images": [
    {
      "uri": "textures/M_table_baseColor2.png"
    },
    {
      "uri": "textures/M_table_metallicRoughness2.png"
    },
    {
      "uri": "textures/M_table_normal2.png"
    },
    {
      "uri": "textures/M_chair_baseColor2.png"
    },
    {
      "uri": "textures/M_chair_metallicRoughness2.png"
    },
    {
      "uri": "textures/M_chair_normal2.png"
    }
  ],
  "materials": [
    {
      "doubleSided": true,
      "emissiveFactor": [
        0,
        0,
        0
      ],
      "name": "M_table",
      "normalTexture": {
        "index": 2,
        "scale": 1,
        "texCoord": 0
      },
      "occlusionTexture": {
        "index": 1,
        "strength": 1,
        "texCoord": 0
      },
      "pbrMetallicRoughness": {
        "baseColorFactor": [
          1,
          1,
          1,
          1
        ],
        "baseColorTexture": {
          "index": 0,
          "texCoord": 0
        },
        "metallicFactor": 0,
        "metallicRoughnessTexture": {
          "index": 1,
          "texCoord": 0
        },
        "roughnessFactor": 1
      }
    },
    {
      "doubleSided": true,
      "name": "M_chair",
      "normalTexture": {
        "index": 5,
        "scale": 1,
        "texCoord": 0
      },
      "occlusionTexture": {
        "index": 4,
        "strength": 1,
        "texCoord": 0
      },
      "pbrMetallicRoughness": {
        "baseColorFactor": [
          1,
          1,
          1,
          1
        ],
        "baseColorTexture": {
          "index": 3,
          "texCoord": 0
        },
        "metallicFactor": 0,
        "metallicRoughnessTexture": {
          "index": 4,
          "texCoord": 0
        },
        "roughnessFactor": 1
      }
    }
  ],
  "meshes": [
    {
      "name": "table_low_M_table_0",
      "primitives": [
        {
          "attributes": {
            "NORMAL": 1,
            "POSITION": 0,
            "TANGENT": 2,
            "TEXCOORD_0": 3
          },
          "indices": 4,
          "material": 0,
          "mode": 4
        }
      ]
    },
    {
      "name": "Chair_low1_M_chair_0",
      "primitives": [
        {
          "attributes": {
            "NORMAL": 6,
            "POSITION": 5,
            "TANGENT": 7,
            "TEXCOORD_0": 8
          },
          "indices": 9,
          "material": 1,
          "mode": 4
        }
      ]
    },
    {
      "name": "Chair_low2_M_chair_0",
      "primitives": [
        {
          "attributes": {
            "NORMAL": 11,
            "POSITION": 10,
            "TANGENT": 12,
            "TEXCOORD_0": 13
          },
          "indices": 14,
          "material": 1,
          "mode": 4
        }
      ]
    },
    {
      "name": "Chair_low3_M_chair_0",
      "primitives": [
        {
          "attributes": {
            "NORMAL": 16,
            "POSITION": 15,
            "TANGENT": 17,
            "TEXCOORD_0": 18
          },
          "indices": 19,
          "material": 1,
          "mode": 4
        }
      ]
    },
    {
      "name": "Chair_low4_M_chair_0",
      "primitives": [
        {
          "attributes": {
            "NORMAL": 21,
            "POSITION": 20,
            "TANGENT": 22,
            "TEXCOORD_0": 23
          },
          "indices": 24,
          "material": 1,
          "mode": 4
        }
      ]
    }
  ],
  "nodes": [
    {
      "children": [
        1
      ],
      "name": "RootNode (gltf orientation matrix)",
      "rotation": [
        -0.70710678118654746,
        -0,
        -0,
        0.70710678118654757
      ]
    },
    {
      "children": [
        2
      ],
      "name": "RootNode (model correction matrix)"
    },
    {
      "children": [
        3
      ],
      "matrix": [
        1,
        0,
        0,
        0,
        0,
        0,
        1,
        0,
        0,
        -1,
        0,
        0,
        0,
        0,
        0,
        1
      ],
      "name": "Table_and_chair_set.fbx"
    },
    {
      "children": [
        4,
        6,
        8,
        10,
        12
      ],
      "name": "RootNode"
    },
    {
      "children": [
        5
      ],
      "name": "table_low"
    },
    {
      "mesh": 0,
      "name": "table_low_M_table_0"
    },
    {
      "children": [
        7
      ],
      "matrix": [
        -0.90658513012620423,
        1.1102465777636426e-16,
        -0.42202298732895288,
        0,
        7.0781769854834694e-17,
        1,
        1.1102465777636426e-16,
        0,
        0.42202298732895288,
        7.0781769854834694e-17,
        -0.90658513012620423,
        0,
        31.036344528198242,
        0,
        63.118160247802734,
        1
      ],
      "name": "Chair_low1"
    },
    {
      "mesh": 1,
      "name": "Chair_low1_M_chair_0"
    },
    {
      "children": [
        9
      ],
      "matrix": [
        -0.9997589110824574,
        1.2243515503761746e-16,
        -0.021957224579158996,
        0,
        1.1977569543483266e-16,
        1,
        1.2243515503761746e-16,
        0,
        0.021957224579158996,
        1.1977569543483266e-16,
        -0.9997589110824574,
        0,
        -31.019815444946289,
        0,
        52.104946136474609,
        1
      ],
      "name": "Chair_low2"
    },
    {
      "mesh": 2,
      "name": "Chair_low2_M_chair_0"
    },
    {
      "children": [
        11
      ],
      "matrix": [
        1,
        0,
        0,
        0,
        0,
        1,
        0,
        0,
        0,
        0,
        1,
        0,
        -34.455738067626953,
        0,
        -61.0589599609375,
        1
      ],
      "name": "Chair_low3"
    },
    {
      "mesh": 3,
      "name": "Chair_low3_M_chair_0"
    },
    {
      "children": [
        13
      ],
      "matrix": [
        1,
        0,
        0,
        0,
        0,
        1,
        0,
        0,
        0,
        0,
        1,
        0,
        28.7880859375,
        0,
        -57.276847839355469,
        1
      ],
      "name": "Chair_low4"
    },
    {
      "mesh": 4,
      "name": "Chair_low4_M_chair_0"
    }
  ],
  "samplers": [
    {
      "magFilter": 9729,
      "minFilter": 9987,
      "wrapS": 10497,
      "wrapT": 10497
    }
  ],
  "scene": 0,
  "scenes": [
    {
      "name": "OSG_Scene",
      "nodes": [
        0
      ]
    }
  ],
  "textures": [
    {
      "sampler": 0,
      "source": 0
    },
    {
      "sampler": 0,
      "source": 1
    },
    {
      "sampler": 0,
      "source": 2
    },
    {
      "sampler": 0,
      "source": 3
    },
    {
      "sampler": 0,
      "source": 4
    },
    {
      "sampler": 0,
      "source": 5
    }
  ]
}

