{
  "accessors": [
    {
      "bufferView": 2,
      "componentType": 5126,
      "count": 2312,
      "max": [
        23.774503707885742,
        23.774486541748047,
        -2.124130964279175
      ],
      "min": [
        -23.774452209472656,
        -23.77446937561035,
        -6.225399971008301
      ],
      "type": "VEC3"
    },
    {
      "bufferView": 2,
      "byteOffset": 27744,
      "componentType": 5126,
      "count": 2312,
      "max": [
        0.9981684684753418,
        0.9981688857078552,
        1.0
      ],
      "min": [
        -0.9981690049171448,
        -0.9981689453125,
        -1.0
      ],
      "type": "VEC3"
    },
    {
      "bufferView": 1,
      "componentType": 5126,
      "count": 2312,
      "max": [
        1.0009729862213135,
        1.0009729862213135
      ],
      "min": [
        -0.0009730000165291131,
        -0.0009730000165291131
      ],
      "type": "VEC2"
    },
    {
      "bufferView": 0,
      "componentType": 5125,
      "count": 13830,
      "type": "SCALAR"
    },
    {
      "bufferView": 2,
      "byteOffset": 55488,
      "componentType": 5126,
      "count": 25322,
      "max": [
        16.548391342163086,
        16.91288185119629,
        4.887132167816162
      ],
      "min": [
        -16.5446834564209,
        -16.944259643554688,
        -4.967566967010498
      ],
      "type": "VEC3"
    },
    {
      "bufferView": 2,
      "byteOffset": 359352,
      "componentType": 5126,
      "count": 25322,
      "max": [
        0.9999818205833435,
        0.9999032616615295,
        0.999999463558197
      ],
      "min": [
        -0.9999286532402039,
        -0.9999863505363464,
        -1.0
      ],
      "type": "VEC3"
    },
    {
      "bufferView": 3,
      "componentType": 5126,
      "count": 25322,
      "max": [
        0.9999755620956421,
        0.9999865293502808,
        0.9997702836990356,
        -1.0
      ],
      "min": [
        -0.9999380111694336,
        -0.9999975562095642,
        -0.9980577230453491,
        -1.0
      ],
      "type": "VEC4"
    },
    {
      "bufferView": 1,
      "byteOffset": 18496,
      "componentType": 5126,
      "count": 25322,
      "max": [
        0.9911209940910339,
        0.9910860061645508
      ],
      "min": [
        0.0036800000816583633,
        0.0052709998562932014
      ],
      "type": "VEC2"
    },
    {
      "bufferView": 0,
      "byteOffset": 55320,
      "componentType": 5125,
      "count": 138552,
      "type": "SCALAR"
    }
  ],
  "asset": {
    "extras": {
      "author": "Francesco Coldesina (https://sketchfab.com/topfrank2013)",
      "license": "CC-BY-4.0 (http://creativecommons.org/licenses/by/4.0/)",
      "source": "https://sketchfab.com/3d-models/fruit-cream-cake-d1b442b228e6422f8877bab8f8a6bfec",
      "title": "Fruit Cream Cake"
    },
    "generator": "Sketchfab-12.65.0",
    "version": "2.0"
  },
  "bufferViews": [
    {
      "buffer": 0,
      "byteLength": 609528,
      "name": "floatBufferViews",
      "target": 34963
    },
    {
      "buffer": 0,
      "byteLength": 221072,
      "byteOffset": 609528,
      "byteStride": 8,
      "name": "floatBufferViews",
      "target": 34962
    },
    {
      "buffer": 0,
      "byteLength": 663216,
      "byteOffset": 830600,
      "byteStride": 12,
      "name": "floatBufferViews",
      "target": 34962
    },
    {
      "buffer": 0,
      "byteLength": 405152,
      "byteOffset": 1493816,
      "byteStride": 16,
      "name": "floatBufferViews",
      "target": 34962
    }
  ],
  "buffers": [
    {
      "byteLength": 1898968,
      "uri": "scene.bin"
    }
  ],
  "extensionsRequired": [
    "KHR_materials_pbrSpecularGlossiness"
  ],
  "extensionsUsed": [
    "KHR_materials_pbrSpecularGlossiness"
  ],
  "images": [
    {
      "uri": "textures/03___Default_diffuse.jpeg"
    },
    {
      "uri": "textures/CL_LR_Baked1_diffuse.jpeg"
    },
    {
      "uri": "textures/CL_LR_Baked1_specularGlossiness.png"
    },
    {
      "uri": "textures/CL_LR_Baked1_normal.png"
    },
    {
      "uri": "textures/CL_LR_Baked1_occlusion.png"
    }
  ],
  "materials": [
    {
      "doubleSided": true,
      "emissiveTexture": {
        "index": 0
      },
      "extensions": {
        "KHR_materials_pbrSpecularGlossiness": {
          "diffuseFactor": [
            1.0,
            1.0,
            1.0,
            1.0
          ],
          "diffuseTexture": {
            "index": 0
          },
          "glossinessFactor": 0.0,
          "specularFactor": [
            0.0,
            0.0,
            0.0
          ]
        }
      },
      "name": "03___Default"
    },
    {
      "doubleSided": true,
      "emissiveTexture": {
        "index": 1
      },
      "extensions": {
        "KHR_materials_pbrSpecularGlossiness": {
          "diffuseFactor": [
            1.0,
            1.0,
            1.0,
            1.0
          ],
          "diffuseTexture": {
            "index": 1
          },
          "glossinessFactor": 0.7212271341,
          "specularFactor": [
            1.0,
            1.0,
            1.0
          ],
          "specularGlossinessTexture": {
            "index": 2
          }
        }
      },
      "name": "CL_LR_Baked1",
      "normalTexture": {
        "index": 3
      },
      "occlusionTexture": {
        "index": 4
      }
    }
  ],
  "meshes": [
    {
      "name": "Object_0",
      "primitives": [
        {
          "attributes": {
            "NORMAL": 1,
            "POSITION": 0,
            "TEXCOORD_0": 2
          },
          "indices": 3,
          "material": 0,
          "mode": 4
        }
      ]
    },
    {
      "name": "Object_1",
      "primitives": [
        {
          "attributes": {
            "NORMAL": 5,
            "POSITION": 4,
            "TANGENT": 6,
            "TEXCOORD_0": 7
          },
          "indices": 8,
          "material": 1,
          "mode": 4
        }
      ]
    }
  ],
  "nodes": [
    {
      "children": [
        1
      ],
      "matrix": [
        1.0,
        0.0,
        0.0,
        0.0,
        0.0,
        2.220446049250313e-16,
        -1.0,
        0.0,
        0.0,
        1.0,
        2.220446049250313e-16,
        0.0,
        0.0,
        0.0,
        0.0,
        1.0
      ],
      "name": "Sketchfab_model"
    },
    {
      "children": [
        2,
        3
      ],
      "name": "Kake.obj.cleaner.materialmerger.gles"
    },
    {
      "mesh": 0,
      "name": "Object_2"
    },
    {
      "mesh": 1,
      "name": "Object_3"
    }
  ],
  "samplers": [
    {
      "magFilter": 9729,
      "minFilter": 9987,
      "wrapS": 10497,
      "wrapT": 10497
    }
  ],
  "scene": 0,
  "scenes": [
    {
      "name": "Sketchfab_Scene",
      "nodes": [
        0
      ]
    }
  ],
  "textures": [
    {
      "sampler": 0,
      "source": 0
    },
    {
      "sampler": 0,
      "source": 1
    },
    {
      "sampler": 0,
      "source": 2
    },
    {
      "sampler": 0,
      "source": 3
    },
    {
      "sampler": 0,
      "source": 4
    }
  ]
}
