{
  "accessors": [
    {
      "bufferView": 2,
      "componentType": 5126,
      "count": 8235,
      "max": [
        37.70146560668945,
        15.241598129272461,
        184.57135009765625
      ],
      "min": [
        -37.764530181884766,
        -18.12023162841797,
        21.192781448364258
      ],
      "type": "VEC3"
    },
    {
      "bufferView": 2,
      "byteOffset": 98820,
      "componentType": 5126,
      "count": 8235,
      "max": [
        1.0,
        1.0,
        1.0
      ],
      "min": [
        -1.0,
        -1.0,
        -1.0
      ],
      "type": "VEC3"
    },
    {
      "bufferView": 3,
      "componentType": 5126,
      "count": 8235,
      "max": [
        1.0,
        1.0,
        1.0,
        1.0
      ],
      "min": [
        -1.0,
        -1.0,
        -1.0,
        1.0
      ],
      "type": "VEC4"
    },
    {
      "bufferView": 1,
      "componentType": 5126,
      "count": 8235,
      "max": [
        0.9870529174804688,
        0.9833540916442871
      ],
      "min": [
        0.014668473042547703,
        0.014668473042547703
      ],
      "type": "VEC2"
    },
    {
      "bufferView": 1,
      "byteOffset": 65880,
      "componentType": 5126,
      "count": 8235,
      "max": [
        0.9831913709640503,
        0.9923144578933716
      ],
      "min": [
        0.007685473654419184,
        0.007685473654419184
      ],
      "type": "VEC2"
    },
    {
      "bufferView": 0,
      "componentType": 5125,
      "count": 17016,
      "type": "SCALAR"
    },
    {
      "bufferView": 2,
      "byteOffset": 197640,
      "componentType": 5126,
      "count": 802,
      "max": [
        46.00000762939453,
        19.31133270263672,
        208.0028839111328
      ],
      "min": [
        -46.00000762939453,
        -19.222944259643555,
        0.00287669338285923
      ],
      "type": "VEC3"
    },
    {
      "bufferView": 2,
      "byteOffset": 207264,
      "componentType": 5126,
      "count": 802,
      "max": [
        1.0,
        1.0,
        1.0
      ],
      "min": [
        -1.0,
        -1.0,
        -1.0
      ],
      "type": "VEC3"
    },
    {
      "bufferView": 3,
      "byteOffset": 131760,
      "componentType": 5126,
      "count": 802,
      "max": [
        1.0,
        1.0,
        0.5141828656196594,
        1.0
      ],
      "min": [
        -1.0,
        -1.0,
        -0.749164342880249,
        1.0
      ],
      "type": "VEC4"
    },
    {
      "bufferView": 1,
      "byteOffset": 131760,
      "componentType": 5126,
      "count": 802,
      "max": [
        0.9742600917816162,
        0.9655487537384033
      ],
      "min": [
        0.008619815111160278,
        0.008619815111160278
      ],
      "type": "VEC2"
    },
    {
      "bufferView": 0,
      "byteOffset": 68064,
      "componentType": 5125,
      "count": 2028,
      "type": "SCALAR"
    }
  ],
  "asset": {
    "extras": {
      "author": "Brandon Westlake (https://sketchfab.com/dr.badass2142)",
      "license": "CC-BY-4.0 (http://creativecommons.org/licenses/by/4.0/)",
      "source": "https://sketchfab.com/3d-models/dusty-old-bookshelf-free-6c5ac2547db34c3c81b2e4808b000386",
      "title": "Dusty Old Bookshelf (FREE)"
    },
    "generator": "Sketchfab-12.67.0",
    "version": "2.0"
  },
  "bufferViews": [
    {
      "buffer": 0,
      "byteLength": 76176,
      "name": "floatBufferViews",
      "target": 34963
    },
    {
      "buffer": 0,
      "byteLength": 138176,
      "byteOffset": 76176,
      "byteStride": 8,
      "name": "floatBufferViews",
      "target": 34962
    },
    {
      "buffer": 0,
      "byteLength": 216888,
      "byteOffset": 214352,
      "byteStride": 12,
      "name": "floatBufferViews",
      "target": 34962
    },
    {
      "buffer": 0,
      "byteLength": 144592,
      "byteOffset": 431240,
      "byteStride": 16,
      "name": "floatBufferViews",
      "target": 34962
    }
  ],
  "buffers": [
    {
      "byteLength": 575832,
      "uri": "scene.bin"
    }
  ],
  "images": [
    {
      "uri": "textures/dusty_bookshelf_books_Mat_baseColor.png"
    },
    {
      "uri": "textures/dusty_bookshelf_books_Mat_metallicRoughness.png"
    },
    {
      "uri": "textures/dusty_bookshelf_books_Mat_normal.png"
    },
    {
      "uri": "textures/dusty_bookshelf_Mat_baseColor.png"
    },
    {
      "uri": "textures/dusty_bookshelf_Mat_metallicRoughness.png"
    },
    {
      "uri": "textures/dusty_bookshelf_Mat_normal.png"
    }
  ],
  "materials": [
    {
      "doubleSided": true,
      "name": "dusty_bookshelf_books_Mat",
      "normalTexture": {
        "index": 2
      },
      "occlusionTexture": {
        "index": 1
      },
      "pbrMetallicRoughness": {
        "baseColorTexture": {
          "index": 0
        },
        "metallicRoughnessTexture": {
          "index": 1
        }
      }
    },
    {
      "alphaMode": "BLEND",
      "doubleSided": true,
      "name": "dusty_bookshelf_Mat",
      "normalTexture": {
        "index": 5
      },
      "occlusionTexture": {
        "index": 4
      },
      "pbrMetallicRoughness": {
        "baseColorTexture": {
          "index": 3
        },
        "metallicRoughnessTexture": {
          "index": 4
        }
      }
    }
  ],
  "meshes": [
    {
      "name": "Old_Dusty_Bookshelf_Books_dusty_bookshelf_books_Mat_0",
      "primitives": [
        {
          "attributes": {
            "NORMAL": 1,
            "POSITION": 0,
            "TANGENT": 2,
            "TEXCOORD_0": 3,
            "TEXCOORD_1": 4
          },
          "indices": 5,
          "material": 0,
          "mode": 4
        }
      ]
    },
    {
      "name": "Old_Dusty_Bookshelf_dusty_bookshelf_Mat_0",
      "primitives": [
        {
          "attributes": {
            "NORMAL": 7,
            "POSITION": 6,
            "TANGENT": 8,
            "TEXCOORD_0": 9
          },
          "indices": 10,
          "material": 1,
          "mode": 4
        }
      ]
    }
  ],
  "nodes": [
    {
      "children": [
        1
      ],
      "matrix": [
        0.8670350909233093,
        0.0,
        0.0,
        0.0,
        0.0,
        1.9252046422020482e-16,
        -0.8670350909233093,
        0.0,
        0.0,
        0.8670350909233093,
        1.9252046422020482e-16,
        0.0,
        0.0,
        0.0,
        0.0,
        1.0
      ],
      "name": "Sketchfab_model"
    },
    {
      "children": [
        2
      ],
      "matrix": [
        1.0,
        0.0,
        0.0,
        0.0,
        0.0,
        0.0,
        1.0,
        0.0,
        0.0,
        -1.0,
        0.0,
        0.0,
        0.0,
        0.0,
        0.0,
        1.0
      ],
      "name": "685d1f8703f14f26ba616216bbcb4bae.fbx"
    },
    {
      "children": [
        3,
        5
      ],
      "name": "RootNode"
    },
    {
      "children": [
        4
      ],
      "matrix": [
        1.0,
        0.0,
        0.0,
        0.0,
        0.0,
        -1.6292067939183141e-07,
        -0.9999999999999868,
        0.0,
        0.0,
        0.9999999999999868,
        -1.6292067939183141e-07,
        0.0,
        0.0,
        0.0,
        0.0,
        1.0
      ],
      "name": "Old_Dusty_Bookshelf_Books"
    },
    {
      "mesh": 0,
      "name": "Old_Dusty_Bookshelf_Books_dusty_bookshelf_books_Mat_0"
    },
    {
      "children": [
        6
      ],
      "matrix": [
        1.0,
        0.0,
        0.0,
        0.0,
        0.0,
        -1.6292067939183141e-07,
        -0.9999999999999868,
        0.0,
        0.0,
        0.9999999999999868,
        -1.6292067939183141e-07,
        0.0,
        0.0,
        0.0,
        0.0,
        1.0
      ],
      "name": "Old_Dusty_Bookshelf"
    },
    {
      "mesh": 1,
      "name": "Old_Dusty_Bookshelf_dusty_bookshelf_Mat_0"
    }
  ],
  "samplers": [
    {
      "magFilter": 9729,
      "minFilter": 9987,
      "wrapS": 10497,
      "wrapT": 10497
    }
  ],
  "scene": 0,
  "scenes": [
    {
      "name": "Sketchfab_Scene",
      "nodes": [
        0
      ]
    }
  ],
  "textures": [
    {
      "sampler": 0,
      "source": 0
    },
    {
      "sampler": 0,
      "source": 1
    },
    {
      "sampler": 0,
      "source": 2
    },
    {
      "sampler": 0,
      "source": 3
    },
    {
      "sampler": 0,
      "source": 4
    },
    {
      "sampler": 0,
      "source": 5
    }
  ]
}
