{
  "accessors": [
    {
      "bufferView": 2,
      "componentType": 5126,
      "count": 1014,
      "max": [
        0.9986720085144043,
        0.514726996421814,
        -0.26664701104164124
      ],
      "min": [
        -0.30498799681663513,
        -0.5145649909973145,
        -0.48416200280189514
      ],
      "type": "VEC3"
    },
    {
      "bufferView": 2,
      "byteOffset": 12168,
      "componentType": 5126,
      "count": 1014,
      "max": [
        0.9935187101364136,
        0.993424117565155,
        0.9995025992393494
      ],
      "min": [
        -0.993424117565155,
        -0.993424117565155,
        -0.9906367063522339
      ],
      "type": "VEC3"
    },
    {
      "bufferView": 1,
      "componentType": 5126,
      "count": 1014,
      "max": [
        0.9695420265197754,
        0.7653480172157288
      ],
      "min": [
        0.026309000328183174,
        0.20777100324630737
      ],
      "type": "VEC2"
    },
    {
      "bufferView": 0,
      "componentType": 5125,
      "count": 4596,
      "type": "SCALAR"
    },
    {
      "bufferView": 2,
      "byteOffset": 24336,
      "componentType": 5126,
      "count": 72,
      "max": [
        0.9876829981803894,
        0.4870249927043915,
        1.7089829444885254
      ],
      "min": [
        -0.28561198711395264,
        -0.5058259963989258,
        -0.24810299277305603
      ],
      "type": "VEC3"
    },
    {
      "bufferView": 2,
      "byteOffset": 25200,
      "componentType": 5126,
      "count": 72,
      "max": [
        1.0,
        1.0,
        1.0
      ],
      "min": [
        -1.0,
        -1.0,
        -1.0
      ],
      "type": "VEC3"
    },
    {
      "bufferView": 3,
      "componentType": 5126,
      "count": 72,
      "max": [
        1.0,
        1.0,
        8.555108252039645e-06,
        1.0
      ],
      "min": [
        -1.0,
        -1.0,
        -6.986264452280011e-06,
        1.0
      ],
      "type": "VEC4"
    },
    {
      "bufferView": 1,
      "byteOffset": 8112,
      "componentType": 5126,
      "count": 72,
      "max": [
        0.9102519750595093,
        0.978896975517273
      ],
      "min": [
        0.05411599949002266,
        0.01435100007802248
      ],
      "type": "VEC2"
    },
    {
      "bufferView": 0,
      "byteOffset": 18384,
      "componentType": 5125,
      "count": 108,
      "type": "SCALAR"
    },
    {
      "bufferView": 2,
      "byteOffset": 26064,
      "componentType": 5126,
      "count": 24521,
      "max": [
        0.5332440137863159,
        0.49549400806427,
        1.7787669897079468
      ],
      "min": [
        0.1466670036315918,
        -0.1614920049905777,
        0.1739179939031601
      ],
      "type": "VEC3"
    },
    {
      "bufferView": 2,
      "byteOffset": 320316,
      "componentType": 5126,
      "count": 24521,
      "max": [
        1.0,
        1.0,
        1.0
      ],
      "min": [
        -1.0,
        -1.0,
        -1.0
      ],
      "type": "VEC3"
    },
    {
      "bufferView": 3,
      "byteOffset": 1152,
      "componentType": 5126,
      "count": 24521,
      "max": [
        1.0,
        1.0,
        1.0,
        1.0
      ],
      "min": [
        -0.9999992251396179,
        -1.0,
        -0.9999990463256836,
        -1.0
      ],
      "type": "VEC4"
    },
    {
      "bufferView": 1,
      "byteOffset": 8688,
      "componentType": 5126,
      "count": 24521,
      "max": [
        0.9795699715614319,
        0.9699829816818237
      ],
      "min": [
        0.03170200064778328,
        0.06769999861717224
      ],
      "type": "VEC2"
    },
    {
      "bufferView": 0,
      "byteOffset": 18816,
      "componentType": 5125,
      "count": 77526,
      "type": "SCALAR"
    },
    {
      "bufferView": 2,
      "byteOffset": 614568,
      "componentType": 5126,
      "count": 16,
      "max": [
        0.987188994884491,
        0.4870249927043915,
        1.7089829444885254
      ],
      "min": [
        -0.28561198711395264,
        -0.5057460069656372,
        -0.24810299277305603
      ],
      "type": "VEC3"
    },
    {
      "bufferView": 1,
      "byteOffset": 204856,
      "componentType": 5126,
      "count": 16,
      "max": [
        0.0,
        0.0
      ],
      "min": [
        0.0,
        0.0
      ],
      "type": "VEC2"
    },
    {
      "bufferView": 0,
      "byteOffset": 328920,
      "componentType": 5125,
      "count": 16,
      "type": "SCALAR"
    },
    {
      "bufferView": 2,
      "byteOffset": 614760,
      "componentType": 5126,
      "count": 3201,
      "max": [
        0.9951879978179932,
        0.5089010000228882,
        1.7277699708938599
      ],
      "min": [
        -0.30270299315452576,
        -0.5339639782905579,
        -0.4329400062561035
      ],
      "type": "VEC3"
    },
    {
      "bufferView": 2,
      "byteOffset": 653172,
      "componentType": 5126,
      "count": 3201,
      "max": [
        1.0,
        1.0,
        1.0
      ],
      "min": [
        -1.0,
        -1.0,
        -1.0
      ],
      "type": "VEC3"
    },
    {
      "bufferView": 3,
      "byteOffset": 393488,
      "componentType": 5126,
      "count": 3201,
      "max": [
        1.0,
        1.0,
        1.0,
        1.0
      ],
      "min": [
        -1.0,
        -1.0,
        -1.0,
        -1.0
      ],
      "type": "VEC4"
    },
    {
      "bufferView": 1,
      "byteOffset": 204984,
      "componentType": 5126,
      "count": 3201,
      "max": [
        0.9757840037345886,
        0.9818559885025024
      ],
      "min": [
        0.03827499970793724,
        0.02222999930381775
      ],
      "type": "VEC2"
    },
    {
      "bufferView": 0,
      "byteOffset": 328984,
      "componentType": 5125,
      "count": 9045,
      "type": "SCALAR"
    }
  ],
  "asset": {
    "extras": {
      "author": "Heliona (https://sketchfab.com/Heliona)",
      "license": "CC-BY-4.0 (http://creativecommons.org/licenses/by/4.0/)",
      "source": "https://sketchfab.com/3d-models/shower-cabin-e2c6a8dd490e4e4398378e1f6c9121a8",
      "title": "Shower Cabin"
    },
    "generator": "Sketchfab-12.64.0",
    "version": "2.0"
  },
  "bufferViews": [
    {
      "buffer": 0,
      "byteLength": 365164,
      "name": "floatBufferViews",
      "target": 34963
    },
    {
      "buffer": 0,
      "byteLength": 230592,
      "byteOffset": 365164,
      "byteStride": 8,
      "name": "floatBufferViews",
      "target": 34962
    },
    {
      "buffer": 0,
      "byteLength": 691584,
      "byteOffset": 595756,
      "byteStride": 12,
      "name": "floatBufferViews",
      "target": 34962
    },
    {
      "buffer": 0,
      "byteLength": 444704,
      "byteOffset": 1287340,
      "byteStride": 16,
      "name": "floatBufferViews",
      "target": 34962
    }
  ],
  "buffers": [
    {
      "byteLength": 1732044,
      "uri": "scene.bin"
    }
  ],
  "images": [
    {
      "uri": "textures/bottom_baseColor.jpeg"
    },
    {
      "uri": "textures/bottom_metallicRoughness.png"
    },
    {
      "uri": "textures/m_glass_door_baseColor.png"
    },
    {
      "uri": "textures/m_glass_door_metallicRoughness.png"
    },
    {
      "uri": "textures/m_glass_door_normal.png"
    },
    {
      "uri": "textures/m_shower_baseColor.jpeg"
    },
    {
      "uri": "textures/m_shower_metallicRoughness.png"
    },
    {
      "uri": "textures/m_shower_normal.png"
    },
    {
      "uri": "textures/m_walls_frame_handle_drain_baseColor.jpeg"
    },
    {
      "uri": "textures/m_walls_frame_handle_drain_metallicRoughness.png"
    },
    {
      "uri": "textures/m_walls_frame_handle_drain_normal.png"
    }
  ],
  "materials": [
    {
      "doubleSided": true,
      "name": "bottom",
      "occlusionTexture": {
        "index": 1
      },
      "pbrMetallicRoughness": {
        "baseColorTexture": {
          "index": 0
        },
        "metallicRoughnessTexture": {
          "index": 1
        }
      }
    },
    {
      "alphaMode": "BLEND",
      "doubleSided": true,
      "name": "m_glass_door",
      "normalTexture": {
        "index": 4
      },
      "occlusionTexture": {
        "index": 3
      },
      "pbrMetallicRoughness": {
        "baseColorTexture": {
          "index": 2
        },
        "metallicRoughnessTexture": {
          "index": 3
        }
      }
    },
    {
      "doubleSided": true,
      "name": "m_shower",
      "normalTexture": {
        "index": 7
      },
      "occlusionTexture": {
        "index": 6
      },
      "pbrMetallicRoughness": {
        "baseColorTexture": {
          "index": 5
        },
        "metallicRoughnessTexture": {
          "index": 6
        }
      }
    },
    {
      "doubleSided": true,
      "name": "m_walls_frame_handle_drain",
      "normalTexture": {
        "index": 10
      },
      "occlusionTexture": {
        "index": 9
      },
      "pbrMetallicRoughness": {
        "baseColorTexture": {
          "index": 8
        },
        "metallicRoughnessTexture": {
          "index": 9
        }
      }
    }
  ],
  "meshes": [
    {
      "name": "Object_0",
      "primitives": [
        {
          "attributes": {
            "NORMAL": 1,
            "POSITION": 0,
            "TEXCOORD_0": 2
          },
          "indices": 3,
          "material": 0,
          "mode": 4
        }
      ]
    },
    {
      "name": "Object_1",
      "primitives": [
        {
          "attributes": {
            "NORMAL": 5,
            "POSITION": 4,
            "TANGENT": 6,
            "TEXCOORD_0": 7
          },
          "indices": 8,
          "material": 1,
          "mode": 4
        }
      ]
    },
    {
      "name": "Object_2",
      "primitives": [
        {
          "attributes": {
            "NORMAL": 10,
            "POSITION": 9,
            "TANGENT": 11,
            "TEXCOORD_0": 12
          },
          "indices": 13,
          "material": 2,
          "mode": 4
        }
      ]
    },
    {
      "name": "Object_3",
      "primitives": [
        {
          "attributes": {
            "POSITION": 14,
            "TEXCOORD_0": 15
          },
          "indices": 16,
          "material": 3,
          "mode": 1
        }
      ]
    },
    {
      "name": "Object_4",
      "primitives": [
        {
          "attributes": {
            "NORMAL": 18,
            "POSITION": 17,
            "TANGENT": 19,
            "TEXCOORD_0": 20
          },
          "indices": 21,
          "material": 3,
          "mode": 4
        }
      ]
    }
  ],
  "nodes": [
    {
      "children": [
        1
      ],
      "matrix": [
        1.0,
        0.0,
        0.0,
        0.0,
        0.0,
        2.220446049250313e-16,
        -1.0,
        0.0,
        0.0,
        1.0,
        2.220446049250313e-16,
        0.0,
        0.0,
        0.0,
        0.0,
        1.0
      ],
      "name": "Sketchfab_model"
    },
    {
      "children": [
        2,
        3,
        4,
        5,
        6
      ],
      "name": "model.obj.cleaner.materialmerger.gles"
    },
    {
      "mesh": 0,
      "name": "Object_2"
    },
    {
      "mesh": 1,
      "name": "Object_3"
    },
    {
      "mesh": 2,
      "name": "Object_4"
    },
    {
      "mesh": 3,
      "name": "Object_5"
    },
    {
      "mesh": 4,
      "name": "Object_6"
    }
  ],
  "samplers": [
    {
      "magFilter": 9729,
      "minFilter": 9987,
      "wrapS": 10497,
      "wrapT": 10497
    }
  ],
  "scene": 0,
  "scenes": [
    {
      "name": "Sketchfab_Scene",
      "nodes": [
        0
      ]
    }
  ],
  "textures": [
    {
      "sampler": 0,
      "source": 0
    },
    {
      "sampler": 0,
      "source": 1
    },
    {
      "sampler": 0,
      "source": 2
    },
    {
      "sampler": 0,
      "source": 3
    },
    {
      "sampler": 0,
      "source": 4
    },
    {
      "sampler": 0,
      "source": 5
    },
    {
      "sampler": 0,
      "source": 6
    },
    {
      "sampler": 0,
      "source": 7
    },
    {
      "sampler": 0,
      "source": 8
    },
    {
      "sampler": 0,
      "source": 9
    },
    {
      "sampler": 0,
      "source": 10
    }
  ]
}
