{
  "accessors": [
    {
      "bufferView": 2,
      "componentType": 5126,
      "count": 2292,
      "max": [
        12.123564720153809,
        12.124412536621094,
        0.11021518707275391
      ],
      "min": [
        -12.123298645019531,
        -0.016039697453379631,
        -12.112064361572266
      ],
      "type": "VEC3"
    },
    {
      "bufferView": 2,
      "byteOffset": 27504,
      "componentType": 5126,
      "count": 2292,
      "max": [
        0.99827384948730469,
        0.99662649631500244,
        0.99959391355514526
      ],
      "min": [
        -1,
        -0.99998283386230469,
        -0.99986326694488525
      ],
      "type": "VEC3"
    },
    {
      "bufferView": 3,
      "componentType": 5126,
      "count": 2292,
      "max": [
        0.99747008085250854,
        0.9999123215675354,
        0.9989616870880127,
        -1
      ],
      "min": [
        -0.99804121255874634,
        -0.99674272537231445,
        -0.99965155124664307,
        -1
      ],
      "type": "VEC4"
    },
    {
      "bufferView": 1,
      "componentType": 5126,
      "count": 2292,
      "max": [
        0.99811422824859619,
        1.0004904270172119
      ],
      "min": [
        0.0014880304224789143,
        0.00052255392074584961
      ],
      "type": "VEC2"
    },
    {
      "bufferView": 1,
      "byteOffset": 18336,
      "componentType": 5126,
      "count": 2292,
      "max": [
        0.99811422824859619,
        1.0004904270172119
      ],
      "min": [
        0.0014880304224789143,
        0.00052255392074584961
      ],
      "type": "VEC2"
    },
    {
      "bufferView": 1,
      "byteOffset": 36672,
      "componentType": 5126,
      "count": 2292,
      "max": [
        0.99811422824859619,
        1.0004904270172119
      ],
      "min": [
        0.0014880304224789143,
        0.00052255392074584961
      ],
      "type": "VEC2"
    },
    {
      "bufferView": 1,
      "byteOffset": 55008,
      "componentType": 5126,
      "count": 2292,
      "max": [
        0.99811422824859619,
        1.0004904270172119
      ],
      "min": [
        0.0014880304224789143,
        0.00052255392074584961
      ],
      "type": "VEC2"
    },
    {
      "bufferView": 0,
      "componentType": 5125,
      "count": 3348,
      "max": [
        2291
      ],
      "min": [
        0
      ],
      "type": "SCALAR"
    }
  ],
  "asset": {
    "extras": {
      "author": "mozillareality (https://sketchfab.com/mozillareality)",
      "license": "CC-BY-4.0 (http://creativecommons.org/licenses/by/4.0/)",
      "source": "https://sketchfab.com/3d-models/tent-canopy-geo-dome-quarter-a67849c73da6482697de7f6f10b7ab82",
      "title": "Tent Canopy - Geo Dome Quarter"
    },
    "generator": "Sketchfab-5.15.0",
    "version": "2.0"
  },
  "bufferViews": [
    {
      "buffer": 0,
      "byteLength": 13392,
      "byteOffset": 0,
      "name": "floatBufferViews",
      "target": 34963
    },
    {
      "buffer": 0,
      "byteLength": 73344,
      "byteOffset": 13392,
      "byteStride": 8,
      "name": "floatBufferViews",
      "target": 34962
    },
    {
      "buffer": 0,
      "byteLength": 55008,
      "byteOffset": 86736,
      "byteStride": 12,
      "name": "floatBufferViews",
      "target": 34962
    },
    {
      "buffer": 0,
      "byteLength": 36672,
      "byteOffset": 141744,
      "byteStride": 16,
      "name": "floatBufferViews",
      "target": 34962
    }
  ],
  "buffers": [
    {
      "byteLength": 178416,
      "uri": "scene.bin"
    }
  ],
  "images": [
    {
      "uri": "textures/GeoDomeMat_normal.png"
    },
    {
      "uri": "textures/GeoDomeMat_baseColor.png"
    },
    {
      "uri": "textures/GeoDomeMat_metallicRoughness.png"
    }
  ],
  "materials": [
    {
      "doubleSided": false,
      "emissiveFactor": [
        0,
        0,
        0
      ],
      "name": "GeoDomeMat",
      "normalTexture": {
        "index": 0,
        "scale": 1,
        "texCoord": 0
      },
      "occlusionTexture": {
        "index": 2,
        "strength": 1,
        "texCoord": 0
      },
      "pbrMetallicRoughness": {
        "baseColorFactor": [
          1,
          1,
          1,
          1
        ],
        "baseColorTexture": {
          "index": 1,
          "texCoord": 0
        },
        "metallicFactor": 1,
        "metallicRoughnessTexture": {
          "index": 2,
          "texCoord": 0
        },
        "roughnessFactor": 1
      }
    }
  ],
  "meshes": [
    {
      "primitives": [
        {
          "attributes": {
            "NORMAL": 1,
            "POSITION": 0,
            "TANGENT": 2,
            "TEXCOORD_0": 3,
            "TEXCOORD_1": 4,
            "TEXCOORD_2": 5,
            "TEXCOORD_3": 6
          },
          "indices": 7,
          "material": 0,
          "mode": 4
        }
      ]
    }
  ],
  "nodes": [
    {
      "children": [
        1
      ],
      "name": "RootNode (gltf orientation matrix)",
      "rotation": [
        -0.70710678118654746,
        -0,
        -0,
        0.70710678118654757
      ]
    },
    {
      "children": [
        2
      ],
      "name": "RootNode (model correction matrix)"
    },
    {
      "children": [
        3
      ],
      "name": "root"
    },
    {
      "children": [
        4
      ],
      "matrix": [
        1,
        0,
        0,
        0,
        0,
        2.2204460492503131e-16,
        1,
        0,
        0,
        -1,
        2.2204460492503131e-16,
        0,
        0,
        0,
        0,
        1
      ],
      "name": "GLTF_SceneRootNode"
    },
    {
      "children": [
        5
      ],
      "name": "GeoDomeQuarter_0"
    },
    {
      "mesh": 0,
      "name": ""
    }
  ],
  "samplers": [
    {
      "magFilter": 9729,
      "minFilter": 9987,
      "wrapS": 10497,
      "wrapT": 10497
    }
  ],
  "scene": 0,
  "scenes": [
    {
      "name": "OSG_Scene",
      "nodes": [
        0
      ]
    }
  ],
  "textures": [
    {
      "sampler": 0,
      "source": 0
    },
    {
      "sampler": 0,
      "source": 1
    },
    {
      "sampler": 0,
      "source": 2
    }
  ]
}

